# xmcd
#
# Track frame offsets:
#	150
#	13566
#	35527
#	51548
#	66746
#	81743
#	101168
#	114920
#	131955
#	146558
#	163462
#	183472
#	199875
#
# Disc length: 2838 seconds
#
# Revision: 1
# Processed by: cddbd v1.5.1PL0 Copyright (c) Steve Scherf et al.
# Submitted via: audiograbber 1.83.01
#
DISCID=d30b140d
DTITLE=Gregg Gorman - Hemingway's Own Gypsy
DYEAR=1900
DGENRE=
TTITLE0=Good Old Day's
TTITLE1=Hemingway's Own Gypsy
TTITLE2=Before You Go
TTITLE3=I Think I'm In Love
TTITLE4=Movin' On
TTITLE5=Young Hobo's Dream
TTITLE6=Anywhere The Wind Blows
TTITLE7=Next Time The World Passes By
TTITLE8=The Circle
TTITLE9=Come A Runnin'
TTITLE10=Letter To Dylan
TTITLE11=Keep On Fadin'
TTITLE12=Sundown
EXTD=
EXTT0=
EXTT1=
EXTT2=
EXTT3=
EXTT4=
EXTT5=
EXTT6=
EXTT7=
EXTT8=
EXTT9=
EXTT10=
EXTT11=
EXTT12=
PLAYORDER=
